<svg id="Icon_ionic-ios-arrow-dropup" data-name="Icon ionic-ios-arrow-dropup" xmlns="http://www.w3.org/2000/svg" width="29.25" height="29.25" viewBox="0 0 29.25 29.25">
  <path id="Path_396" data-name="Path 396" d="M10.378,12.564a1.362,1.362,0,0,0,0,1.92l6.729,6.708a1.356,1.356,0,0,0,1.87.042l6.63-6.609A1.355,1.355,0,1,0,23.7,12.7L18,18.315l-5.7-5.759A1.356,1.356,0,0,0,10.378,12.564Z" transform="translate(-3.375 -1.124)" fill="#1b4685"/>
  <path id="Path_397" data-name="Path 397" d="M18,3.375A14.625,14.625,0,1,1,3.375,18,14.623,14.623,0,0,1,18,3.375Zm0,2.25A12.37,12.37,0,0,0,9.253,26.747,12.37,12.37,0,1,0,26.747,9.253,12.269,12.269,0,0,0,18,5.625Z" transform="translate(-3.375 -3.375)" fill="#1b4685"/>
</svg>
