<svg xmlns="http://www.w3.org/2000/svg" width="27.596" height="25.625" viewBox="0 0 27.596 25.625">
  <g id="Group_67" data-name="Group 67" transform="translate(-501.95 -2156.837)">
    <path id="Icon_ionic-ios-star" data-name="Icon ionic-ios-star" d="M28.8,12.245H19.738L16.984,4.028a1,1,0,0,0-1.873,0l-2.753,8.217H3.236a.988.988,0,0,0-.986.986.724.724,0,0,0,.018.166.947.947,0,0,0,.413.7l7.447,5.248L7.27,27.651a.988.988,0,0,0,.339,1.109.953.953,0,0,0,.554.24,1.208,1.208,0,0,0,.616-.222l7.269-5.18,7.269,5.18a1.154,1.154,0,0,0,.616.222.885.885,0,0,0,.548-.24.976.976,0,0,0,.339-1.109l-2.858-8.31,7.386-5.3.179-.154a1.033,1.033,0,0,0,.32-.659A1.043,1.043,0,0,0,28.8,12.245Z" transform="translate(499.7 2153.462)" fill="#fcde5c"/>
  </g>
</svg>
