<svg xmlns="http://www.w3.org/2000/svg" xmlns:xlink="http://www.w3.org/1999/xlink" width="45" height="45" viewBox="0 0 45 45">
  <defs>
    <linearGradient id="linear-gradient" x1="0.5" x2="0.5" y2="1" gradientUnits="objectBoundingBox">
      <stop offset="0" stop-color="#7d52a1"/>
      <stop offset="1" stop-color="#523669"/>
    </linearGradient>
  </defs>
  <g id="Group_1286" data-name="Group 1286" transform="translate(0.275 -0.196)">
    <rect id="Rectangle_1016" data-name="Rectangle 1016" width="45" height="45" rx="22.5" transform="translate(-0.275 0.196)" fill="url(#linear-gradient)"/>
    <path id="Icon_awesome-viber" data-name="Icon awesome-viber" d="M22,2.442C21.381,1.87,18.867.045,13.26.02c0,0-6.609-.4-9.828,2.558C1.642,4.369,1.011,7,.943,10.249s-.152,9.348,5.724,11h0l0,2.524S6.627,24.8,7.3,25c.812.254,1.291-.523,2.069-1.36.426-.46,1.013-1.135,1.458-1.649a22.732,22.732,0,0,0,7.46-.548c.812-.264,5.406-.851,6.149-6.947C25.211,8.209,24.067,4.237,22,2.442Zm.68,11.6c-.631,5.088-4.354,5.41-5.039,5.631a21.032,21.032,0,0,1-6.418.548s-2.544,3.067-3.336,3.865c-.259.259-.543.235-.538-.279,0-.338.02-4.192.02-4.192h0c-4.98-1.38-4.686-6.57-4.633-9.285S3.305,5.387,4.822,3.89c2.725-2.47,8.336-2.1,8.336-2.1,4.74.02,7.01,1.448,7.538,1.927,1.746,1.5,2.637,5.078,1.986,10.327Zm-6.8-3.953a.316.316,0,0,1-.631.029,1.513,1.513,0,0,0-1.595-1.658.316.316,0,0,1,.034-.631A2.127,2.127,0,0,1,15.883,10.088Zm.993.553a3.655,3.655,0,0,0-3.708-3.879.316.316,0,0,1,.044-.631,4.285,4.285,0,0,1,4.3,4.525.316.316,0,0,1-.631-.015Zm2.3.656a.316.316,0,0,1-.631,0c-.029-3.987-2.686-6.159-5.909-6.183a.316.316,0,0,1,0-.631C16.24,4.511,19.141,7,19.175,11.3Zm-.553,4.8v.01c-.528.929-1.517,1.957-2.534,1.629l-.01-.015a18.8,18.8,0,0,1-5-2.764A12.789,12.789,0,0,1,9,12.881,15.874,15.874,0,0,1,7.5,10.6,14.617,14.617,0,0,1,6.226,7.877C5.9,6.859,6.921,5.871,7.855,5.343h.01a.891.891,0,0,1,1.169.191s.607.724.866,1.081c.245.333.572.866.744,1.164a1.021,1.021,0,0,1-.181,1.3l-.587.47a.861.861,0,0,0-.259.685,6.125,6.125,0,0,0,4.124,4.124.861.861,0,0,0,.685-.259l.47-.587a1.021,1.021,0,0,1,1.3-.181,12.675,12.675,0,0,1,2.241,1.609A.874.874,0,0,1,18.622,16.1Z" transform="translate(10.034 10.346)" fill="#fff"/>
  </g>
</svg>
