<svg xmlns="http://www.w3.org/2000/svg" width="45" height="45" viewBox="0 0 45 45">
  <g id="Group_1148" data-name="Group 1148" transform="translate(0 -0.196)">
    <rect id="Rectangle_1016" data-name="Rectangle 1016" width="45" height="45" rx="22.5" transform="translate(0 0.196)" fill="#1fbf45"/>
    <path id="Icon_ionic-logo-whatsapp" data-name="Icon ionic-logo-whatsapp" d="M14.105,2.25A11.388,11.388,0,0,0,2.673,13.594a11.227,11.227,0,0,0,1.64,5.858L2.25,25.538l6.329-2.011a11.452,11.452,0,0,0,16.958-9.933A11.388,11.388,0,0,0,14.105,2.25ZM19.79,17.9a2.953,2.953,0,0,1-2.022,1.3c-.536.028-.551.416-3.474-.854a11.928,11.928,0,0,1-4.82-4.557A5.606,5.606,0,0,1,8.4,10.755,3.239,3.239,0,0,1,9.508,8.379a1.12,1.12,0,0,1,.792-.333c.23,0,.379-.007.55,0s.426-.036.647.553.751,2.035.819,2.183a.53.53,0,0,1,.005.508,1.985,1.985,0,0,1-.31.472c-.153.164-.321.366-.457.491-.152.139-.31.29-.151.586A8.748,8.748,0,0,0,12.95,14.9a7.976,7.976,0,0,0,2.292,1.524c.287.156.458.139.636-.048s.761-.819.967-1.1.4-.227.662-.121,1.672.861,1.958,1.016.478.235.546.359A2.4,2.4,0,0,1,19.79,17.9Z" transform="translate(9.08 8.438)" fill="#fff"/>
  </g>
</svg>
